Urbanist-Black Italic.ufo
<glyph name="numbersign" format="2">
	<advance width="1606"/>
	<unicode hex="0023"/>
	<outline>
		<contour>
			<point x="1499" y="850" type="line"/>
			<point x="1618" y="1140" type="line"/>
			<point x="1470" y="1140" type="line"/>
			<point x="1574" y="1400" type="line"/>
			<point x="1271" y="1400" type="line"/>
			<point x="1166" y="1140" type="line"/>
			<point x="856" y="1140" type="line"/>
			<point x="962" y="1400" type="line"/>
			<point x="658" y="1400" type="line"/>
			<point x="552" y="1140" type="line"/>
			<point x="404" y="1140" type="line"/>
			<point x="285" y="850" type="line"/>
			<point x="435" y="850" type="line"/>
			<point x="311" y="550" type="line"/>
			<point x="163" y="550" type="line"/>
			<point x="44" y="260" type="line"/>
			<point x="192" y="260" type="line"/>
			<point x="88" y="0" type="line"/>
			<point x="392" y="0" type="line"/>
			<point x="496" y="260" type="line"/>
			<point x="806" y="260" type="line"/>
			<point x="700" y="0" type="line"/>
			<point x="1004" y="0" type="line"/>
			<point x="1110" y="260" type="line"/>
			<point x="1258" y="260" type="line"/>
			<point x="1377" y="550" type="line"/>
			<point x="1227" y="550" type="line"/>
			<point x="1351" y="850" type="line"/>
		</contour>
		<contour>
			<point x="923" y="550" type="line"/>
			<point x="615" y="550" type="line"/>
			<point x="739" y="850" type="line"/>
			<point x="1047" y="850" type="line"/>
		</contour>
	</outline>
</glyph>
<glyph name="percent" format="2">
	<advance width="1630"/>
	<unicode hex="0025"/>
	<outline>
		<contour>
			<point x="165" y="0" type="line"/>
			<point x="517" y="0" type="line"/>
			<point x="1522" y="1400" type="line"/>
			<point x="1169" y="1400" type="line"/>
		</contour>
		<contour>
			<point x="467" y="760" type="curve" smooth="yes"/>
			<point x="635" y="760"/>
			<point x="801" y="894"/>
			<point x="827" y="1075" type="curve" smooth="yes"/>
			<point x="854" y="1270"/>
			<point x="717" y="1424"/>
			<point x="527" y="1424" type="curve" smooth="yes"/>
			<point x="357" y="1424"/>
			<point x="191" y="1292"/>
			<point x="166" y="1109" type="curve" smooth="yes"/>
			<point x="138" y="914"/>
			<point x="277" y="760"/>
		</contour>
		<contour>
			<point x="462" y="960" type="curve" smooth="yes"/>
			<point x="396" y="960"/>
			<point x="352" y="1010"/>
			<point x="361" y="1075" type="curve" smooth="yes"/>
			<point x="372" y="1158"/>
			<point x="450" y="1224"/>
			<point x="533" y="1224" type="curve" smooth="yes"/>
			<point x="596" y="1224"/>
			<point x="641" y="1174"/>
			<point x="632" y="1109" type="curve" smooth="yes"/>
			<point x="620" y="1026"/>
			<point x="542" y="960"/>
		</contour>
		<contour>
			<point x="1159" y="-26" type="curve" smooth="yes"/>
			<point x="1334" y="-26"/>
			<point x="1496" y="116"/>
			<point x="1520" y="289" type="curve" smooth="yes"/>
			<point x="1546" y="474"/>
			<point x="1419" y="640"/>
			<point x="1219" y="640" type="curve" smooth="yes"/>
			<point x="1051" y="640"/>
			<point x="885" y="504"/>
			<point x="859" y="323" type="curve" smooth="yes"/>
			<point x="833" y="140"/>
			<point x="964" y="-26"/>
		</contour>
		<contour>
			<point x="1153" y="174" type="curve" smooth="yes"/>
			<point x="1090" y="174"/>
			<point x="1045" y="226"/>
			<point x="1054" y="289" type="curve" smooth="yes"/>
			<point x="1066" y="372"/>
			<point x="1144" y="440"/>
			<point x="1224" y="440" type="curve" smooth="yes"/>
			<point x="1290" y="440"/>
			<point x="1334" y="388"/>
			<point x="1325" y="323" type="curve" smooth="yes"/>
			<point x="1314" y="242"/>
			<point x="1236" y="174"/>
		</contour>
	</outline>
</glyph>
<glyph name="ampersand" format="2">
	<advance width="1438"/>
	<unicode hex="0026"/>
	<outline>
		<contour>
			<point x="467" y="-26" type="curve" smooth="yes"/>
			<point x="622" y="-26"/>
			<point x="696" y="18"/>
			<point x="904" y="200" type="curve"/>
			<point x="1082" y="0" type="line"/>
			<point x="1318" y="212" type="line"/>
			<point x="1140" y="418" type="line"/>
			<point x="1210" y="476" type="line"/>
			<point x="1263" y="900" type="line"/>
			<point x="952" y="630" type="line"/>
			<point x="785" y="828" type="line"/>
			<point x="891" y="918"/>
			<point x="934" y="982"/>
			<point x="949" y="1087" type="curve" smooth="yes"/>
			<point x="977" y="1288"/>
			<point x="837" y="1446"/>
			<point x="640" y="1446" type="curve" smooth="yes"/>
			<point x="467" y="1446"/>
			<point x="298" y="1310"/>
			<point x="271" y="1121" type="curve" smooth="yes"/>
			<point x="254" y="1000"/>
			<point x="287" y="932"/>
			<point x="361" y="846" type="curve"/>
			<point x="151" y="662"/>
			<point x="93" y="594"/>
			<point x="71" y="435" type="curve" smooth="yes"/>
			<point x="36" y="188"/>
			<point x="208" y="-26"/>
		</contour>
		<contour>
			<point x="475" y="274" type="curve" smooth="yes"/>
			<point x="412" y="274"/>
			<point x="355" y="324"/>
			<point x="366" y="401" type="curve" smooth="yes"/>
			<point x="377" y="482"/>
			<point x="418" y="504"/>
			<point x="546" y="616" type="curve"/>
			<point x="714" y="424" type="line"/>
			<point x="590" y="318"/>
			<point x="556" y="274"/>
		</contour>
		<contour>
			<point x="582" y="1000" type="curve"/>
			<point x="537" y="1050"/>
			<point x="523" y="1060"/>
			<point x="527" y="1093" type="curve" smooth="yes"/>
			<point x="535" y="1148"/>
			<point x="589" y="1190"/>
			<point x="638" y="1190" type="curve" smooth="yes"/>
			<point x="663" y="1190"/>
			<point x="698" y="1172"/>
			<point x="692" y="1127" type="curve" smooth="yes"/>
			<point x="685" y="1076"/>
			<point x="664" y="1070"/>
		</contour>
	</outline>
</glyph>
<glyph name="quotesingle" format="2">
	<advance width="320"/>
	<unicode hex="0027"/>
	<outline>
		<contour>
			<point x="113" y="878" type="line"/>
			<point x="313" y="878" type="line"/>
			<point x="386" y="1400" type="line"/>
			<point x="186" y="1400" type="line"/>
		</contour>
	</outline>
</glyph>
<glyph name="asterisk" format="2">
	<advance width="734"/>
	<unicode hex="002A"/>
	<outline>
		<contour>
			<point x="315" y="826" type="line"/>
			<point x="421" y="946" type="line"/>
			<point x="489" y="826" type="line"/>
			<point x="662" y="944" type="line"/>
			<point x="589" y="1064" type="line"/>
			<point x="738" y="1108" type="line"/>
			<point x="701" y="1300" type="line"/>
			<point x="557" y="1254" type="line"/>
			<point x="579" y="1400" type="line"/>
			<point x="378" y="1400" type="line"/>
			<point x="357" y="1254" type="line"/>
			<point x="219" y="1300" type="line"/>
			<point x="134" y="1108" type="line"/>
			<point x="267" y="1064" type="line"/>
			<point x="163" y="944" type="line"/>
		</contour>
	</outline>
</glyph>
<glyph name="plus" format="2">
	<advance width="1160"/>
	<unicode hex="002B"/>
	<outline>
		<contour>
			<point x="374" y="100" type="line"/>
			<point x="674" y="100" type="line"/>
			<point x="723" y="450" type="line"/>
			<point x="1073" y="450" type="line"/>
			<point x="1115" y="750" type="line"/>
			<point x="765" y="750" type="line"/>
			<point x="814" y="1100" type="line"/>
			<point x="514" y="1100" type="line"/>
			<point x="465" y="750" type="line"/>
			<point x="115" y="750" type="line"/>
			<point x="73" y="450" type="line"/>
			<point x="423" y="450" type="line"/>
		</contour>
	</outline>
</glyph>
<glyph name="hyphen" format="2">
	<advance width="880"/>
	<unicode hex="002D"/>
	<outline>
		<contour>
			<point x="155" y="750" type="line"/>
			<point x="113" y="450" type="line"/>
			<point x="753" y="450" type="line"/>
			<point x="795" y="750" type="line"/>
		</contour>
	</outline>
</glyph>
<glyph name="period" format="2">
	<advance width="500"/>
	<unicode hex="002E"/>
	<outline>
		<contour>
			<point x="173" y="-26" type="curve" smooth="yes"/>
			<point x="246" y="-26"/>
			<point x="314" y="32"/>
			<point x="325" y="107" type="curve" smooth="yes"/>
			<point x="338" y="198"/>
			<point x="272" y="274"/>
			<point x="181" y="274" type="curve" smooth="yes"/>
			<point x="106" y="274"/>
			<point x="40" y="214"/>
			<point x="30" y="141" type="curve" smooth="yes"/>
			<point x="17" y="48"/>
			<point x="80" y="-26"/>
		</contour>
	</outline>
</glyph>
<glyph name="slash" format="2">
	<advance width="866"/>
	<unicode hex="002F"/>
	<outline>
		<contour>
			<point x="915" y="1400" type="line"/>
			<point x="610" y="1400" type="line"/>
			<point x="-8" y="-112" type="line"/>
			<point x="296" y="-112" type="line"/>
		</contour>
	</outline>
</glyph>
<glyph name="zero" format="2">
	<advance width="1218"/>
	<unicode hex="0030"/>
	<outline>
		<contour>
			<point x="553" y="-26" type="curve" smooth="yes"/>
			<point x="864" y="-26"/>
			<point x="1129" y="292"/>
			<point x="1184" y="683" type="curve" smooth="yes"/>
			<point x="1241" y="1092"/>
			<point x="1052" y="1426"/>
			<point x="723" y="1426" type="curve" smooth="yes"/>
			<point x="412" y="1426"/>
			<point x="146" y="1108"/>
			<point x="90" y="717" type="curve" smooth="yes"/>
			<point x="33" y="308"/>
			<point x="224" y="-26"/>
		</contour>
		<contour>
			<point x="561" y="274" type="curve" smooth="yes"/>
			<point x="386" y="274"/>
			<point x="337" y="476"/>
			<point x="366" y="683" type="curve" smooth="yes"/>
			<point x="398" y="910"/>
			<point x="520" y="1126"/>
			<point x="715" y="1126" type="curve" smooth="yes"/>
			<point x="884" y="1126"/>
			<point x="940" y="938"/>
			<point x="908" y="717" type="curve" smooth="yes"/>
			<point x="877" y="490"/>
			<point x="756" y="274"/>
		</contour>
	</outline>
</glyph>
<glyph name="one" format="2">
	<advance width="730"/>
	<unicode hex="0031"/>
	<outline>
		<contour>
			<point x="200" y="0" type="line"/>
			<point x="500" y="0" type="line"/>
			<point x="696" y="1400" type="line"/>
			<point x="284" y="1400" type="line"/>
			<point x="162" y="1100" type="line"/>
			<point x="354" y="1100" type="line"/>
		</contour>
	</outline>
</glyph>
<glyph name="two" format="2">
	<advance width="1172"/>
	<unicode hex="0032"/>
	<outline>
		<contour>
			<point x="10" y="0" type="line"/>
			<point x="982" y="0" type="line"/>
			<point x="1024" y="300" type="line"/>
			<point x="609" y="294" type="line"/>
			<point x="914" y="554"/>
			<point x="1081" y="710"/>
			<point x="1111" y="923" type="curve" smooth="yes"/>
			<point x="1151" y="1202"/>
			<point x="956" y="1426"/>
			<point x="681" y="1426" type="curve" smooth="yes"/>
			<point x="428" y="1426"/>
			<point x="184" y="1224"/>
			<point x="145" y="948" type="curve"/>
			<point x="443" y="932" type="line"/>
			<point x="457" y="1034"/>
			<point x="562" y="1126"/>
			<point x="673" y="1126" type="curve" smooth="yes"/>
			<point x="766" y="1126"/>
			<point x="829" y="1050"/>
			<point x="816" y="957" type="curve" smooth="yes"/>
			<point x="791" y="780"/>
			<point x="243" y="388"/>
			<point x="41" y="272" type="curve"/>
		</contour>
	</outline>
</glyph>
<glyph name="three" format="2">
	<advance width="1044"/>
	<unicode hex="0033"/>
	<outline>
		<contour>
			<point x="465" y="-26" type="curve" smooth="yes"/>
			<point x="710" y="-26"/>
			<point x="938" y="174"/>
			<point x="973" y="419" type="curve" smooth="yes"/>
			<point x="991" y="548"/>
			<point x="950" y="701"/>
			<point x="859" y="737" type="curve"/>
			<point x="953" y="782"/>
			<point x="1001" y="894"/>
			<point x="1013" y="979" type="curve" smooth="yes"/>
			<point x="1048" y="1228"/>
			<point x="868" y="1428"/>
			<point x="626" y="1428" type="curve" smooth="yes"/>
			<point x="396" y="1428"/>
			<point x="164" y="1242"/>
			<point x="131" y="1004" type="curve"/>
			<point x="429" y="988" type="line"/>
			<point x="439" y="1060"/>
			<point x="539" y="1128"/>
			<point x="621" y="1128" type="curve" smooth="yes"/>
			<point x="685" y="1128"/>
			<point x="727" y="1076"/>
			<point x="718" y="1013" type="curve" smooth="yes"/>
			<point x="703" y="904"/>
			<point x="596" y="846"/>
			<point x="450" y="846" type="curve"/>
			<point x="435" y="618" type="line"/>
			<point x="601" y="618"/>
			<point x="693" y="566"/>
			<point x="677" y="453" type="curve" smooth="yes"/>
			<point x="664" y="356"/>
			<point x="570" y="274"/>
			<point x="473" y="274" type="curve" smooth="yes"/>
			<point x="394" y="274"/>
			<point x="337" y="340"/>
			<point x="350" y="428" type="curve"/>
			<point x="52" y="444" type="line"/>
			<point x="16" y="188"/>
			<point x="204" y="-26"/>
		</contour>
	</outline>
</glyph>
<glyph name="seven" format="2">
	<advance width="1116"/>
	<unicode hex="0037"/>
	<outline>
		<contour>
			<point x="21" y="0" type="line"/>
			<point x="373" y="0" type="line"/>
			<point x="1163" y="1100" type="line"/>
			<point x="1202" y="1400" type="line"/>
			<point x="166" y="1400" type="line"/>
			<point x="124" y="1100" type="line"/>
			<point x="809" y="1100" type="line"/>
		</contour>
	</outline>
</glyph>
<glyph name="nine" format="2">
	<advance width="1120"/>
	<unicode hex="0039"/>
	<outline>
		<contour>
			<point x="183" y="0" type="line"/>
			<point x="537" y="0" type="line"/>
			<point x="1025" y="669" type="line" smooth="yes"/>
			<point x="1079" y="747"/>
			<point x="1107" y="832"/>
			<point x="1118" y="909" type="curve" smooth="yes"/>
			<point x="1157" y="1194"/>
			<point x="956" y="1426"/>
			<point x="675" y="1426" type="curve" smooth="yes"/>
			<point x="406" y="1426"/>
			<point x="160" y="1208"/>
			<point x="122" y="943" type="curve" smooth="yes"/>
			<point x="85" y="678"/>
			<point x="253" y="459"/>
			<point x="502" y="429" type="curve"/>
		</contour>
		<contour>
			<point x="575" y="726" type="curve" smooth="yes"/>
			<point x="469" y="726"/>
			<point x="404" y="810"/>
			<point x="418" y="911" type="curve" smooth="yes"/>
			<point x="433" y="1020"/>
			<point x="542" y="1126"/>
			<point x="667" y="1126" type="curve" smooth="yes"/>
			<point x="760" y="1126"/>
			<point x="837" y="1050"/>
			<point x="823" y="945" type="curve" smooth="yes"/>
			<point x="807" y="832"/>
			<point x="703" y="726"/>
		</contour>
	</outline>
</glyph>
<glyph name="colon" format="2">
	<advance width="500"/>
	<unicode hex="003A"/>
	<outline>
		<contour>
			<point x="275" y="700" type="curve" smooth="yes"/>
			<point x="348" y="700"/>
			<point x="416" y="758"/>
			<point x="427" y="833" type="curve" smooth="yes"/>
			<point x="440" y="924"/>
			<point x="374" y="1000"/>
			<point x="284" y="1000" type="curve" smooth="yes"/>
			<point x="208" y="1000"/>
			<point x="142" y="940"/>
			<point x="132" y="867" type="curve" smooth="yes"/>
			<point x="119" y="774"/>
			<point x="182" y="700"/>
		</contour>
		<contour>
			<point x="173" y="-26" type="curve" smooth="yes"/>
			<point x="246" y="-26"/>
			<point x="314" y="32"/>
			<point x="325" y="107" type="curve" smooth="yes"/>
			<point x="338" y="198"/>
			<point x="272" y="274"/>
			<point x="181" y="274" type="curve" smooth="yes"/>
			<point x="106" y="274"/>
			<point x="40" y="214"/>
			<point x="30" y="141" type="curve" smooth="yes"/>
			<point x="17" y="48"/>
			<point x="80" y="-26"/>
		</contour>
	</outline>
</glyph>
<glyph name="less" format="2">
	<advance width="1160"/>
	<unicode hex="003C"/>
	<outline>
		<contour>
			<point x="1019" y="64" type="line"/>
			<point x="1062" y="376" type="line"/>
			<point x="308" y="600" type="line"/>
			<point x="1126" y="824" type="line"/>
			<point x="1169" y="1136" type="line"/>
			<point x="129" y="850" type="line"/>
			<point x="59" y="348" type="line"/>
		</contour>
	</outline>
</glyph>
<glyph name="equal" format="2">
	<advance width="1160"/>
	<unicode hex="003D"/>
	<outline>
		<contour>
			<point x="42" y="228" type="line"/>
			<point x="1042" y="228" type="line"/>
			<point x="1084" y="528" type="line"/>
			<point x="84" y="528" type="line"/>
		</contour>
		<contour>
			<point x="104" y="672" type="line"/>
			<point x="1104" y="672" type="line"/>
			<point x="1146" y="972" type="line"/>
			<point x="146" y="972" type="line"/>
		</contour>
	</outline>
</glyph>
<glyph name="question" format="2">
	<advance width="1164"/>
	<unicode hex="003F"/>
	<outline>
		<contour>
			<point x="413" y="408" type="curve"/>
			<point x="711" y="392" type="line"/>
			<point x="718" y="443"/>
			<point x="758" y="491"/>
			<point x="812" y="510" type="curve" smooth="yes"/>
			<point x="971" y="596"/>
			<point x="1080" y="756"/>
			<point x="1104" y="929" type="curve" smooth="yes"/>
			<point x="1143" y="1202"/>
			<point x="950" y="1426"/>
			<point x="675" y="1426" type="curve" smooth="yes"/>
			<point x="418" y="1426"/>
			<point x="181" y="1218"/>
			<point x="144" y="954" type="curve"/>
			<point x="442" y="938" type="line"/>
			<point x="456" y="1038"/>
			<point x="558" y="1126"/>
			<point x="667" y="1126" type="curve" smooth="yes"/>
			<point x="758" y="1126"/>
			<point x="822" y="1054"/>
			<point x="809" y="963" type="curve" smooth="yes"/>
			<point x="798" y="882"/>
			<point x="747" y="816"/>
			<point x="680" y="790" type="curve" smooth="yes"/>
			<point x="534" y="709"/>
			<point x="436" y="569"/>
		</contour>
		<contour>
			<point x="535" y="-26" type="curve" smooth="yes"/>
			<point x="608" y="-26"/>
			<point x="674" y="32"/>
			<point x="685" y="109" type="curve" smooth="yes"/>
			<point x="698" y="200"/>
			<point x="634" y="274"/>
			<point x="543" y="274" type="curve" smooth="yes"/>
			<point x="468" y="274"/>
			<point x="402" y="216"/>
			<point x="392" y="143" type="curve" smooth="yes"/>
			<point x="379" y="48"/>
			<point x="442" y="-26"/>
		</contour>
	</outline>
</glyph>
<glyph name="A" format="2">
	<advance width="1514"/>
	<unicode hex="0041"/>
	<outline>
		<contour>
			<point x="712" y="1400" type="line"/>
			<point x="7" y="0" type="line"/>
			<point x="330" y="0" type="line"/>
			<point x="441" y="220" type="line"/>
			<point x="999" y="220" type="line"/>
			<point x="1048" y="0" type="line"/>
			<point x="1361" y="0" type="line"/>
			<point x="1050" y="1400" type="line"/>
		</contour>
		<contour>
			<point x="593" y="520" type="line"/>
			<point x="829" y="984" type="line"/>
			<point x="931" y="520" type="line"/>
		</contour>
	</outline>
</glyph>
<glyph name="D" format="2">
	<advance width="1344"/>
	<unicode hex="0044"/>
	<outline>
		<contour>
			<point x="50" y="0" type="line"/>
			<point x="522" y="0" type="line" smooth="yes"/>
			<point x="908" y="0"/>
			<point x="1257" y="306"/>
			<point x="1310" y="683" type="curve" smooth="yes"/>
			<point x="1365" y="1078"/>
			<point x="1088" y="1400"/>
			<point x="702" y="1400" type="curve" smooth="yes"/>
			<point x="246" y="1400" type="line"/>
		</contour>
		<contour>
			<point x="392" y="300" type="line"/>
			<point x="504" y="1100" type="line"/>
			<point x="677" y="1100" type="line" smooth="yes"/>
			<point x="895" y="1100"/>
			<point x="1044" y="928"/>
			<point x="1014" y="717" type="curve" smooth="yes"/>
			<point x="982" y="486"/>
			<point x="764" y="300"/>
			<point x="548" y="300" type="curve" smooth="yes"/>
		</contour>
	</outline>
</glyph>
<glyph name="E" format="2">
	<advance width="1112"/>
	<unicode hex="0045"/>
	<outline>
		<contour>
			<point x="50" y="0" type="line"/>
			<point x="942" y="0" type="line"/>
			<point x="984" y="300" type="line"/>
			<point x="392" y="300" type="line"/>
			<point x="434" y="600" type="line"/>
			<point x="890" y="600" type="line"/>
			<point x="932" y="900" type="line"/>
			<point x="476" y="900" type="line"/>
			<point x="504" y="1100" type="line"/>
			<point x="1096" y="1100" type="line"/>
			<point x="1138" y="1400" type="line"/>
			<point x="246" y="1400" type="line"/>
		</contour>
	</outline>
</glyph>
<glyph name="I" format="2">
	<advance width="600"/>
	<unicode hex="0049"/>
	<outline>
		<contour>
			<point x="80" y="0" type="line"/>
			<point x="380" y="0" type="line"/>
			<point x="576" y="1400" type="line"/>
			<point x="276" y="1400" type="line"/>
		</contour>
	</outline>
</glyph>
<glyph name="K" format="2">
	<advance width="1230"/>
	<unicode hex="004B"/>
	<outline>
		<contour>
			<point x="1137" y="0" type="line"/>
			<point x="690" y="740" type="line"/>
			<point x="1340" y="1400" type="line"/>
			<point x="941" y="1400" type="line"/>
			<point x="476" y="924" type="line"/>
			<point x="547" y="1400" type="line"/>
			<point x="246" y="1400" type="line"/>
			<point x="50" y="0" type="line"/>
			<point x="350" y="0" type="line"/>
			<point x="417" y="458" type="line"/>
			<point x="467" y="506" type="line"/>
			<point x="751" y="0" type="line"/>
		</contour>
	</outline>
</glyph>
<glyph name="L" format="2">
	<advance width="1070"/>
	<unicode hex="004C"/>
	<outline>
		<contour>
			<point x="50" y="0" type="line"/>
			<point x="900" y="0" type="line"/>
			<point x="942" y="300" type="line"/>
			<point x="392" y="300" type="line"/>
			<point x="546" y="1400" type="line"/>
			<point x="246" y="1400" type="line"/>
		</contour>
	</outline>
</glyph>
<glyph name="M" format="2">
	<advance width="1924"/>
	<unicode hex="004D"/>
	<outline>
		<contour>
			<point x="48" y="0" type="line"/>
			<point x="357" y="0" type="line"/>
			<point x="612" y="756" type="line"/>
			<point x="790" y="0" type="line"/>
			<point x="998" y="0" type="line"/>
			<point x="1392" y="756" type="line"/>
			<point x="1429" y="0" type="line"/>
			<point x="1732" y="0" type="line"/>
			<point x="1657" y="1400" type="line"/>
			<point x="1400" y="1400" type="line"/>
			<point x="967" y="574" type="line"/>
			<point x="772" y="1400" type="line"/>
			<point x="517" y="1400" type="line"/>
		</contour>
	</outline>
</glyph>
<glyph name="P" format="2">
	<advance width="1140"/>
	<unicode hex="0050"/>
	<outline>
		<contour>
			<point x="50" y="0" type="line"/>
			<point x="350" y="0" type="line"/>
			<point x="426" y="544" type="line"/>
			<point x="663" y="544" type="line" smooth="yes"/>
			<point x="885" y="544"/>
			<point x="1092" y="728"/>
			<point x="1124" y="955" type="curve" smooth="yes"/>
			<point x="1158" y="1196"/>
			<point x="996" y="1400"/>
			<point x="766" y="1400" type="curve" smooth="yes"/>
			<point x="246" y="1400" type="line"/>
		</contour>
		<contour>
			<point x="468" y="844" type="line"/>
			<point x="511" y="1144" type="line"/>
			<point x="713" y="1144" type="line" smooth="yes"/>
			<point x="793" y="1144"/>
			<point x="842" y="1084"/>
			<point x="832" y="1011" type="curve" smooth="yes"/>
			<point x="819" y="920"/>
			<point x="734" y="844"/>
			<point x="654" y="844" type="curve" smooth="yes"/>
		</contour>
	</outline>
</glyph>
<glyph name="Q" format="2">
	<advance width="1584"/>
	<unicode hex="0051"/>
	<outline>
		<contour>
			<point x="1220" y="-52" type="line"/>
			<point x="1456" y="160" type="line"/>
			<point x="1324" y="307" type="line"/>
			<point x="1411" y="421"/>
			<point x="1468" y="554"/>
			<point x="1487" y="691" type="curve" smooth="yes"/>
			<point x="1544" y="1100"/>
			<point x="1273" y="1434"/>
			<point x="885" y="1434" type="curve" smooth="yes"/>
			<point x="513" y="1434"/>
			<point x="167" y="1116"/>
			<point x="112" y="725" type="curve" smooth="yes"/>
			<point x="54" y="314"/>
			<point x="326" y="-18"/>
			<point x="714" y="-18" type="curve" smooth="yes"/>
			<point x="844" y="-18"/>
			<point x="975" y="19"/>
			<point x="1091" y="91" type="curve"/>
		</contour>
		<contour>
			<point x="723" y="282" type="curve" smooth="yes"/>
			<point x="517" y="282"/>
			<point x="375" y="464"/>
			<point x="407" y="691" type="curve" smooth="yes"/>
			<point x="441" y="934"/>
			<point x="653" y="1134"/>
			<point x="876" y="1134" type="curve" smooth="yes"/>
			<point x="1081" y="1134"/>
			<point x="1223" y="950"/>
			<point x="1192" y="725" type="curve" smooth="yes"/>
			<point x="1182" y="656"/>
			<point x="1158" y="598"/>
			<point x="1129" y="546" type="curve"/>
			<point x="1062" y="612" type="line"/>
			<point x="826" y="400" type="line"/>
			<point x="894" y="319" type="line"/>
			<point x="840" y="297"/>
			<point x="785" y="282"/>
		</contour>
	</outline>
</glyph>
<glyph name="R" format="2">
	<advance width="1266"/>
	<unicode hex="0052"/>
	<outline>
		<contour>
			<point x="50" y="0" type="line"/>
			<point x="350" y="0" type="line"/>
			<point x="426" y="544" type="line"/>
			<point x="533" y="544" type="line"/>
			<point x="773" y="0" type="line"/>
			<point x="1113" y="0" type="line"/>
			<point x="868" y="568" type="line"/>
			<point x="1031" y="640"/>
			<point x="1140" y="784"/>
			<point x="1164" y="955" type="curve" smooth="yes"/>
			<point x="1198" y="1198"/>
			<point x="1038" y="1400"/>
			<point x="808" y="1400" type="curve" smooth="yes"/>
			<point x="246" y="1400" type="line"/>
		</contour>
		<contour>
			<point x="468" y="844" type="line"/>
			<point x="511" y="1144" type="line"/>
			<point x="753" y="1144" type="line" smooth="yes"/>
			<point x="833" y="1144"/>
			<point x="882" y="1084"/>
			<point x="872" y="1011" type="curve" smooth="yes"/>
			<point x="859" y="920"/>
			<point x="774" y="844"/>
			<point x="694" y="844" type="curve" smooth="yes"/>
		</contour>
	</outline>
</glyph>
<glyph name="S" format="2">
	<advance width="1264"/>
	<unicode hex="0053"/>
	<outline>
		<contour>
			<point x="575" y="-26" type="curve" smooth="yes"/>
			<point x="852" y="-26"/>
			<point x="1114" y="142"/>
			<point x="1149" y="395" type="curve" smooth="yes"/>
			<point x="1187" y="662"/>
			<point x="955" y="807"/>
			<point x="664" y="847" type="curve" smooth="yes"/>
			<point x="549" y="867"/>
			<point x="452" y="872"/>
			<point x="466" y="971" type="curve" smooth="yes"/>
			<point x="478" y="1058"/>
			<point x="612" y="1126"/>
			<point x="736" y="1124" type="curve" smooth="yes"/>
			<point x="858" y="1124"/>
			<point x="945" y="1074"/>
			<point x="957" y="1016" type="curve"/>
			<point x="1247" y="1102" type="line"/>
			<point x="1204" y="1300"/>
			<point x="990" y="1426"/>
			<point x="745" y="1426" type="curve" smooth="yes"/>
			<point x="472" y="1426"/>
			<point x="207" y="1258"/>
			<point x="171" y="1005" type="curve" smooth="yes"/>
			<point x="131" y="722"/>
			<point x="350" y="595"/>
			<point x="656" y="553" type="curve" smooth="yes"/>
			<point x="757" y="535"/>
			<point x="865" y="504"/>
			<point x="854" y="429" type="curve" smooth="yes"/>
			<point x="841" y="338"/>
			<point x="712" y="274"/>
			<point x="583" y="274" type="curve" smooth="yes"/>
			<point x="462" y="274"/>
			<point x="375" y="326"/>
			<point x="363" y="384" type="curve"/>
			<point x="73" y="296" type="line"/>
			<point x="119" y="100"/>
			<point x="330" y="-26"/>
		</contour>
	</outline>
</glyph>
<glyph name="U" format="2">
	<advance width="1378"/>
	<unicode hex="0055"/>
	<outline>
		<contour>
			<point x="633" y="-26" type="curve" smooth="yes"/>
			<point x="960" y="-26"/>
			<point x="1221" y="238"/>
			<point x="1269" y="576" type="curve" smooth="yes"/>
			<point x="1384" y="1400" type="line"/>
			<point x="1084" y="1400" type="line"/>
			<point x="971" y="592" type="line" smooth="yes"/>
			<point x="947" y="420"/>
			<point x="822" y="274"/>
			<point x="641" y="274" type="curve" smooth="yes"/>
			<point x="480" y="274"/>
			<point x="407" y="406"/>
			<point x="431" y="576" type="curve" smooth="yes"/>
			<point x="546" y="1400" type="line"/>
			<point x="246" y="1400" type="line"/>
			<point x="133" y="592" type="line" smooth="yes"/>
			<point x="85" y="254"/>
			<point x="288" y="-26"/>
		</contour>
	</outline>
</glyph>
<glyph name="Y" format="2">
	<advance width="1392"/>
	<unicode hex="0059"/>
	<outline>
		<contour>
			<point x="1101" y="1400" type="line"/>
			<point x="754" y="956" type="line"/>
			<point x="537" y="1400" type="line"/>
			<point x="190" y="1400" type="line"/>
			<point x="567" y="630" type="line"/>
			<point x="476" y="0" type="line"/>
			<point x="776" y="0" type="line"/>
			<point x="867" y="630" type="line"/>
			<point x="1462" y="1400" type="line"/>
		</contour>
	</outline>
</glyph>
<glyph name="Z" format="2">
	<advance width="1372"/>
	<unicode hex="005A"/>
	<outline>
		<contour>
			<point x="50" y="0" type="line"/>
			<point x="1182" y="0" type="line"/>
			<point x="1224" y="300" type="line"/>
			<point x="501" y="300" type="line"/>
			<point x="1339" y="1100" type="line"/>
			<point x="1378" y="1400" type="line"/>
			<point x="246" y="1400" type="line"/>
			<point x="204" y="1100" type="line"/>
			<point x="927" y="1100" type="line"/>
			<point x="89" y="300" type="line"/>
		</contour>
	</outline>
</glyph>
<glyph name="bracketleft" format="2">
	<advance width="696"/>
	<unicode hex="005B"/>
	<outline>
		<contour>
			<point x="552" y="188" type="line"/>
			<point x="376" y="188" type="line"/>
			<point x="504" y="1100" type="line"/>
			<point x="680" y="1100" type="line"/>
			<point x="722" y="1400" type="line"/>
			<point x="246" y="1400" type="line"/>
			<point x="34" y="-112" type="line"/>
			<point x="510" y="-112" type="line"/>
		</contour>
	</outline>
</glyph>
<glyph name="backslash" format="2">
	<advance width="864"/>
	<unicode hex="005C"/>
	<outline>
		<contour>
			<point x="400" y="-112" type="line"/>
			<point x="696" y="-112" type="line"/>
			<point x="504" y="1400" type="line"/>
			<point x="209" y="1400" type="line"/>
		</contour>
	</outline>
</glyph>
<glyph name="grave" format="2">
	<advance width="1180"/>
	<unicode hex="0060"/>
	<outline>
		<contour>
			<point x="453" y="1426" type="line"/>
			<point x="633" y="1138" type="line"/>
			<point x="788" y="1138" type="line"/>
			<point x="748" y="1426" type="line"/>
		</contour>
	</outline>
</glyph>
<glyph name="c" format="2">
	<advance width="1020"/>
	<unicode hex="0063"/>
	<outline>
		<contour>
			<point x="659" y="334" type="line"/>
			<point x="620" y="300"/>
			<point x="568" y="274"/>
			<point x="511" y="274" type="curve"/>
			<point x="406" y="274"/>
			<point x="342" y="374"/>
			<point x="358" y="483" type="curve"/>
			<point x="376" y="612"/>
			<point x="486" y="728"/>
			<point x="609" y="728" type="curve"/>
			<point x="648" y="728"/>
			<point x="690" y="714"/>
			<point x="721" y="678" type="curve"/>
			<point x="1000" y="811" type="line"/>
			<point x="925" y="939"/>
			<point x="790" y="1028"/>
			<point x="617" y="1028" type="curve"/>
			<point x="350" y="1028"/>
			<point x="102" y="800"/>
			<point x="62" y="517" type="curve"/>
			<point x="20" y="218"/>
			<point x="218" y="-26"/>
			<point x="503" y="-26" type="curve"/>
			<point x="658" y="-26"/>
			<point x="810" y="49"/>
			<point x="919" y="175" type="curve"/>
		</contour>
	</outline>
</glyph>
<glyph name="g" format="2">
	<advance width="1254"/>
	<unicode hex="0067"/>
	<outline>
		<contour>
			<point x="904" y="1000" type="line"/>
			<point x="885" y="906" type="line"/>
			<point x="835" y="974"/>
			<point x="758" y="1026"/>
			<point x="643" y="1026" type="curve" smooth="yes"/>
			<point x="362" y="1026"/>
			<point x="102" y="798"/>
			<point x="62" y="517" type="curve" smooth="yes"/>
			<point x="20" y="218"/>
			<point x="230" y="-26"/>
			<point x="529" y="-26" type="curve" smooth="yes"/>
			<point x="626" y="-26"/>
			<point x="711" y="14"/>
			<point x="781" y="82" type="curve"/>
			<point x="763" y="-2" type="line" smooth="yes"/>
			<point x="745" y="-132"/>
			<point x="598" y="-198"/>
			<point x="451" y="-198" type="curve" smooth="yes"/>
			<point x="366" y="-198"/>
			<point x="291" y="-154"/>
			<point x="261" y="-64" type="curve"/>
			<point x="-22" y="-172" type="line"/>
			<point x="40" y="-362"/>
			<point x="222" y="-500"/>
			<point x="442" y="-500" type="curve" smooth="yes"/>
			<point x="738" y="-500"/>
			<point x="1018" y="-322"/>
			<point x="1061" y="-18" type="curve" smooth="yes"/>
			<point x="1204" y="1000" type="line"/>
		</contour>
		<contour>
			<point x="540" y="262" type="curve" smooth="yes"/>
			<point x="426" y="262"/>
			<point x="348" y="360"/>
			<point x="366" y="483" type="curve" smooth="yes"/>
			<point x="385" y="624"/>
			<point x="510" y="738"/>
			<point x="640" y="738" type="curve" smooth="yes"/>
			<point x="756" y="738"/>
			<point x="834" y="640"/>
			<point x="816" y="517" type="curve" smooth="yes"/>
			<point x="797" y="376"/>
			<point x="672" y="262"/>
		</contour>
	</outline>
</glyph>
<glyph name="j" format="2">
	<advance width="542"/>
	<unicode hex="006A"/>
	<outline>
		<contour>
			<point x="-221" y="-500" type="curve"/>
			<point x="50" y="-500"/>
			<point x="280" y="-296"/>
			<point x="317" y="-36" type="curve"/>
			<point x="462" y="1000" type="line"/>
			<point x="162" y="1000" type="line"/>
			<point x="19" y="-20" type="line"/>
			<point x="5" y="-116"/>
			<point x="-93" y="-200"/>
			<point x="-178" y="-200" type="curve"/>
			<point x="-170" y="-200"/>
			<point x="-229" y="-500"/>
		</contour>
		<contour>
			<point x="343" y="1100" type="curve"/>
			<point x="417" y="1100"/>
			<point x="485" y="1160"/>
			<point x="495" y="1233" type="curve"/>
			<point x="508" y="1326"/>
			<point x="442" y="1400"/>
			<point x="352" y="1400" type="curve"/>
			<point x="276" y="1400"/>
			<point x="210" y="1342"/>
			<point x="200" y="1267" type="curve"/>
			<point x="187" y="1176"/>
			<point x="251" y="1100"/>
		</contour>
	</outline>
</glyph>
<glyph name="o" format="2">
	<advance width="1120"/>
	<unicode hex="006F"/>
	<outline>
		<contour>
			<point x="503" y="-26" type="curve" smooth="yes"/>
			<point x="770" y="-26"/>
			<point x="1018" y="202"/>
			<point x="1058" y="483" type="curve" smooth="yes"/>
			<point x="1100" y="784"/>
			<point x="902" y="1028"/>
			<point x="617" y="1028" type="curve" smooth="yes"/>
			<point x="350" y="1028"/>
			<point x="102" y="800"/>
			<point x="62" y="517" type="curve" smooth="yes"/>
			<point x="20" y="218"/>
			<point x="218" y="-26"/>
		</contour>
		<contour>
			<point x="511" y="274" type="curve" smooth="yes"/>
			<point x="412" y="274"/>
			<point x="341" y="364"/>
			<point x="358" y="483" type="curve" smooth="yes"/>
			<point x="376" y="614"/>
			<point x="488" y="728"/>
			<point x="609" y="728" type="curve" smooth="yes"/>
			<point x="708" y="728"/>
			<point x="779" y="634"/>
			<point x="762" y="517" type="curve" smooth="yes"/>
			<point x="744" y="386"/>
			<point x="634" y="274"/>
		</contour>
	</outline>
</glyph>
<glyph name="p" format="2">
	<advance width="1278"/>
	<unicode hex="0070"/>
	<outline>
		<contour>
			<point x="280" y="-500" type="line"/>
			<point x="369" y="98" type="line"/>
			<point x="421" y="28"/>
			<point x="498" y="-28"/>
			<point x="615" y="-28" type="curve"/>
			<point x="898" y="-28"/>
			<point x="1156" y="200"/>
			<point x="1196" y="483" type="curve"/>
			<point x="1238" y="782"/>
			<point x="1030" y="1026"/>
			<point x="729" y="1026" type="curve"/>
			<point x="630" y="1026"/>
			<point x="544" y="982"/>
			<point x="472" y="912" type="curve"/>
			<point x="491" y="1000" type="line"/>
			<point x="190" y="1000" type="line"/>
			<point x="-21" y="-500" type="line"/>
		</contour>
		<contour>
			<point x="718" y="738" type="curve"/>
			<point x="834" y="738"/>
			<point x="911" y="638"/>
			<point x="894" y="517" type="curve"/>
			<point x="875" y="376"/>
			<point x="750" y="262"/>
			<point x="618" y="262" type="curve"/>
			<point x="504" y="262"/>
			<point x="426" y="360"/>
			<point x="444" y="483" type="curve"/>
			<point x="463" y="622"/>
			<point x="588" y="738"/>
		</contour>
	</outline>
</glyph>
<glyph name="q" format="2">
	<advance width="1278"/>
	<unicode hex="0071"/>
	<outline>
		<contour>
			<point x="549" y="-28" type="curve"/>
			<point x="648" y="-28"/>
			<point x="733" y="16"/>
			<point x="805" y="86" type="curve"/>
			<point x="717" y="-500" type="line"/>
			<point x="1017" y="-500" type="line"/>
			<point x="1228" y="1000" type="line"/>
			<point x="928" y="1000" type="line"/>
			<point x="909" y="900" type="line"/>
			<point x="856" y="970"/>
			<point x="780" y="1026"/>
			<point x="663" y="1026" type="curve"/>
			<point x="382" y="1026"/>
			<point x="122" y="798"/>
			<point x="82" y="517" type="curve"/>
			<point x="40" y="216"/>
			<point x="250" y="-28"/>
		</contour>
		<contour>
			<point x="660" y="738" type="curve"/>
			<point x="776" y="738"/>
			<point x="851" y="638"/>
			<point x="834" y="517" type="curve"/>
			<point x="815" y="376"/>
			<point x="692" y="262"/>
			<point x="560" y="262" type="curve"/>
			<point x="444" y="262"/>
			<point x="368" y="360"/>
			<point x="386" y="483" type="curve"/>
			<point x="405" y="622"/>
			<point x="528" y="738"/>
		</contour>
	</outline>
</glyph>
<glyph name="t" format="2">
	<advance width="730"/>
	<unicode hex="0074"/>
	<outline>
		<contour>
			<point x="698" y="700" type="line"/>
			<point x="740" y="1000" type="line"/>
			<point x="570" y="1000" type="line"/>
			<point x="614" y="1314" type="line"/>
			<point x="314" y="1314" type="line"/>
			<point x="270" y="1000" type="line"/>
			<point x="140" y="1000" type="line"/>
			<point x="98" y="700" type="line"/>
			<point x="228" y="700" type="line"/>
			<point x="130" y="0" type="line"/>
			<point x="430" y="0" type="line"/>
			<point x="528" y="700" type="line"/>
		</contour>
	</outline>
</glyph>
<glyph name="u" format="2">
	<advance width="1256"/>
	<unicode hex="0075"/>
	<outline>
		<contour>
			<point x="121" y="504" type="line"/>
			<point x="82" y="214"/>
			<point x="230" y="-28"/>
			<point x="527" y="-28" type="curve"/>
			<point x="626" y="-28"/>
			<point x="711" y="16"/>
			<point x="783" y="86" type="curve"/>
			<point x="765" y="0" type="line"/>
			<point x="1066" y="0" type="line"/>
			<point x="1206" y="1000" type="line"/>
			<point x="906" y="1000" type="line"/>
			<point x="837" y="508" type="line"/>
			<point x="819" y="376"/>
			<point x="726" y="262"/>
			<point x="588" y="262" type="curve"/>
			<point x="464" y="262"/>
			<point x="400" y="360"/>
			<point x="419" y="492" type="curve"/>
			<point x="490" y="1000" type="line"/>
			<point x="190" y="1000" type="line"/>
		</contour>
	</outline>
</glyph>
<glyph name="v" format="2">
	<advance width="1236"/>
	<unicode hex="0076"/>
	<outline>
		<contour>
			<point x="744" y="0" type="line"/>
			<point x="1249" y="1000" type="line"/>
			<point x="924" y="1000" type="line"/>
			<point x="591" y="344" type="line"/>
			<point x="448" y="1000" type="line"/>
			<point x="133" y="1000" type="line"/>
			<point x="356" y="0" type="line"/>
		</contour>
	</outline>
</glyph>
<glyph name="x" format="2">
	<advance width="1262"/>
	<unicode hex="0078"/>
	<outline>
		<contour>
			<point x="7" y="0" type="line"/>
			<point x="383" y="0" type="line"/>
			<point x="601" y="248" type="line"/>
			<point x="745" y="0" type="line"/>
			<point x="1109" y="0" type="line"/>
			<point x="816" y="502" type="line"/>
			<point x="1251" y="1000" type="line"/>
			<point x="875" y="1000" type="line"/>
			<point x="660" y="758" type="line"/>
			<point x="521" y="1000" type="line"/>
			<point x="157" y="1000" type="line"/>
			<point x="446" y="502" type="line"/>
		</contour>
	</outline>
</glyph>
<glyph name="braceleft" format="2">
	<advance width="830"/>
	<unicode hex="007B"/>
	<outline>
		<contour>
			<point x="526" y="-112" type="curve" smooth="yes"/>
			<point x="644" y="-112" type="line"/>
			<point x="686" y="188" type="line"/>
			<point x="552" y="188" type="line" smooth="yes"/>
			<point x="524" y="188"/>
			<point x="512" y="202"/>
			<point x="516" y="230" type="curve" smooth="yes"/>
			<point x="551" y="486" type="line" smooth="yes"/>
			<point x="556" y="550"/>
			<point x="483" y="576"/>
			<point x="490" y="627" type="curve" smooth="yes"/>
			<point x="499" y="690"/>
			<point x="582" y="724"/>
			<point x="595" y="786" type="curve" smooth="yes"/>
			<point x="630" y="1042" type="line" smooth="yes"/>
			<point x="634" y="1070"/>
			<point x="669" y="1100"/>
			<point x="697" y="1100" type="curve" smooth="yes"/>
			<point x="814" y="1100" type="line"/>
			<point x="856" y="1400" type="line"/>
			<point x="722" y="1400" type="line" smooth="yes"/>
			<point x="528" y="1400"/>
			<point x="359" y="1250"/>
			<point x="332" y="1058" type="curve" smooth="yes"/>
			<point x="298" y="812" type="line" smooth="yes"/>
			<point x="290" y="758"/>
			<point x="152" y="728"/>
			<point x="143" y="661" type="curve" smooth="yes"/>
			<point x="130" y="568"/>
			<point x="262" y="554"/>
			<point x="253" y="490" type="curve" smooth="yes"/>
			<point x="218" y="246" type="line" smooth="yes"/>
			<point x="191" y="52"/>
			<point x="332" y="-112"/>
		</contour>
	</outline>
</glyph>
<glyph name="asciitilde" format="2">
	<advance width="1349"/>
	<unicode hex="007E"/>
	<outline>
		<contour>
			<point x="996" y="384" type="curve" smooth="yes"/>
			<point x="1180" y="384"/>
			<point x="1295" y="542"/>
			<point x="1297" y="730" type="curve"/>
			<point x="1008" y="754" type="line"/>
			<point x="1001" y="704"/>
			<point x="974" y="656"/>
			<point x="915" y="656" type="curve" smooth="yes"/>
			<point x="784" y="656"/>
			<point x="616" y="816"/>
			<point x="430" y="816" type="curve" smooth="yes"/>
			<point x="246" y="816"/>
			<point x="81" y="654"/>
			<point x="78" y="466" type="curve"/>
			<point x="368" y="442" type="line"/>
			<point x="374" y="484"/>
			<point x="397" y="536"/>
			<point x="456" y="536" type="curve" smooth="yes"/>
			<point x="587" y="536"/>
			<point x="810" y="384"/>
		</contour>
	</outline>
</glyph>
<glyph name="exclamdown" format="2">
	<advance width="498"/>
	<unicode hex="00A1"/>
	<outline>
		<contour>
			<point x="285" y="1026" type="curve"/>
			<point x="212" y="1026"/>
			<point x="146" y="968"/>
			<point x="135" y="891" type="curve"/>
			<point x="122" y="800"/>
			<point x="186" y="726"/>
			<point x="277" y="726" type="curve"/>
			<point x="352" y="726"/>
			<point x="418" y="784"/>
			<point x="428" y="857" type="curve"/>
			<point x="441" y="952"/>
			<point x="378" y="1026"/>
		</contour>
		<contour>
			<point x="365" y="580" type="line"/>
			<point x="115" y="580" type="line"/>
			<point x="-22" y="-400" type="line"/>
			<point x="228" y="-400" type="line"/>
		</contour>
	</outline>
</glyph>
<glyph name="cent" format="2">
	<advance width="1092"/>
	<unicode hex="00A2"/>
	<outline>
		<contour>
			<point x="411" y="0" type="line"/>
			<point x="612" y="0" type="line"/>
			<point x="649" y="206" type="line"/>
			<point x="793" y="234"/>
			<point x="918" y="315"/>
			<point x="1007" y="433" type="curve"/>
			<point x="759" y="597" type="line"/>
			<point x="715" y="541"/>
			<point x="641" y="498"/>
			<point x="565" y="498" type="curve" smooth="yes"/>
			<point x="463" y="498"/>
			<point x="391" y="582"/>
			<point x="406" y="685" type="curve" smooth="yes"/>
			<point x="423" y="804"/>
			<point x="537" y="904"/>
			<point x="656" y="904" type="curve" smooth="yes"/>
			<point x="715" y="904"/>
			<point x="771" y="875"/>
			<point x="802" y="819" type="curve"/>
			<point x="1073" y="955" type="line"/>
			<point x="1016" y="1073"/>
			<point x="907" y="1164"/>
			<point x="771" y="1192" type="curve"/>
			<point x="809" y="1400" type="line"/>
			<point x="608" y="1400" type="line"/>
			<point x="572" y="1196" type="line"/>
			<point x="337" y="1150"/>
			<point x="144" y="952"/>
			<point x="111" y="719" type="curve" smooth="yes"/>
			<point x="75" y="466"/>
			<point x="228" y="258"/>
			<point x="449" y="210" type="curve"/>
		</contour>
	</outline>
</glyph>
<glyph name="currency" format="2">
	<advance width="1050"/>
	<unicode hex="00A4"/>
	<outline>
		<contour>
			<point x="193" y="255" type="line"/>
			<point x="347" y="389" type="line"/>
			<point x="445" y="327"/>
			<point x="572" y="321"/>
			<point x="692" y="379" type="curve"/>
			<point x="802" y="255" type="line"/>
			<point x="956" y="397" type="line"/>
			<point x="846" y="518" type="line"/>
			<point x="924" y="626"/>
			<point x="934" y="760"/>
			<point x="888" y="868" type="curve"/>
			<point x="1041" y="1005" type="line"/>
			<point x="915" y="1145" type="line"/>
			<point x="759" y="1011" type="line"/>
			<point x="664" y="1067"/>
			<point x="532" y="1075"/>
			<point x="419" y="1017" type="curve"/>
			<point x="307" y="1145" type="line"/>
			<point x="151" y="1005" type="line"/>
			<point x="266" y="878" type="line"/>
			<point x="188" y="772"/>
			<point x="178" y="642"/>
			<point x="221" y="536" type="curve"/>
			<point x="65" y="397" type="line"/>
		</contour>
		<contour>
			<point x="517" y="539" type="curve" smooth="yes"/>
			<point x="437" y="537"/>
			<point x="382" y="603"/>
			<point x="394" y="682" type="curve" smooth="yes"/>
			<point x="406" y="771"/>
			<point x="493" y="859"/>
			<point x="595" y="857" type="curve" smooth="yes"/>
			<point x="668" y="855"/>
			<point x="729" y="803"/>
			<point x="716" y="716" type="curve" smooth="yes"/>
			<point x="702" y="617"/>
			<point x="613" y="541"/>
		</contour>
	</outline>
</glyph>
<glyph name="yen" format="2">
	<advance width="1392"/>
	<unicode hex="00A5"/>
	<outline>
		<contour>
			<point x="476" y="0" type="line"/>
			<point x="776" y="0" type="line"/>
			<point x="793" y="124" type="line"/>
			<point x="1007" y="124" type="line"/>
			<point x="1035" y="324" type="line"/>
			<point x="821" y="324" type="line"/>
			<point x="831" y="390" type="line"/>
			<point x="1045" y="390" type="line"/>
			<point x="1073" y="590" type="line"/>
			<point x="859" y="590" type="line"/>
			<point x="867" y="630" type="line"/>
			<point x="1462" y="1400" type="line"/>
			<point x="1101" y="1400" type="line"/>
			<point x="754" y="956" type="line"/>
			<point x="537" y="1400" type="line"/>
			<point x="190" y="1400" type="line"/>
			<point x="567" y="630" type="line"/>
			<point x="558" y="590" type="line"/>
			<point x="345" y="590" type="line"/>
			<point x="317" y="390" type="line"/>
			<point x="531" y="390" type="line"/>
			<point x="521" y="324" type="line"/>
			<point x="307" y="324" type="line"/>
			<point x="279" y="124" type="line"/>
			<point x="493" y="124" type="line"/>
		</contour>
	</outline>
</glyph>
<glyph name="section" format="2">
	<advance width="1116"/>
	<unicode hex="00A7"/>
	<outline>
		<contour>
			<point x="438" y="-356" type="curve" smooth="yes"/>
			<point x="628" y="-356"/>
			<point x="815" y="-236"/>
			<point x="842" y="-39" type="curve" smooth="yes"/>
			<point x="853" y="40"/>
			<point x="831" y="102"/>
			<point x="801" y="146" type="curve"/>
			<point x="909" y="236"/>
			<point x="976" y="356"/>
			<point x="994" y="483" type="curve" smooth="yes"/>
			<point x="1028" y="726"/>
			<point x="890" y="917"/>
			<point x="667" y="955" type="curve" smooth="yes"/>
			<point x="629" y="964"/>
			<point x="543" y="966"/>
			<point x="550" y="1013" type="curve" smooth="yes"/>
			<point x="560" y="1084"/>
			<point x="624" y="1109"/>
			<point x="702" y="1104" type="curve" smooth="yes"/>
			<point x="744" y="1097"/>
			<point x="779" y="1067"/>
			<point x="799" y="1037" type="curve"/>
			<point x="1044" y="1163" type="line"/>
			<point x="973" y="1283"/>
			<point x="842" y="1356"/>
			<point x="678" y="1356" type="curve" smooth="yes"/>
			<point x="488" y="1356"/>
			<point x="301" y="1236"/>
			<point x="274" y="1039" type="curve" smooth="yes"/>
			<point x="263" y="960"/>
			<point x="285" y="898"/>
			<point x="313" y="856" type="curve"/>
			<point x="207" y="766"/>
			<point x="140" y="644"/>
			<point x="122" y="517" type="curve" smooth="yes"/>
			<point x="91" y="296"/>
			<point x="229" y="67"/>
			<point x="443" y="46" type="curve" smooth="yes"/>
			<point x="480" y="41"/>
			<point x="573" y="36"/>
			<point x="566" y="-13" type="curve" smooth="yes"/>
			<point x="556" y="-84"/>
			<point x="492" y="-109"/>
			<point x="414" y="-104" type="curve" smooth="yes"/>
			<point x="372" y="-97"/>
			<point x="337" y="-67"/>
			<point x="317" y="-37" type="curve"/>
			<point x="72" y="-163" type="line"/>
			<point x="143" y="-283"/>
			<point x="274" y="-356"/>
		</contour>
		<contour>
			<point x="527" y="302" type="curve" smooth="yes"/>
			<point x="418" y="302"/>
			<point x="365" y="382"/>
			<point x="380" y="483" type="curve" smooth="yes"/>
			<point x="394" y="584"/>
			<point x="496" y="698"/>
			<point x="581" y="698" type="curve" smooth="yes"/>
			<point x="696" y="698"/>
			<point x="751" y="624"/>
			<point x="736" y="517" type="curve" smooth="yes"/>
			<point x="721" y="410"/>
			<point x="622" y="302"/>
		</contour>
	</outline>
</glyph>
<glyph name="copyright" format="2">
	<advance width="1962"/>
	<unicode hex="00A9"/>
	<outline>
		<contour>
			<point x="874" y="-374" type="curve" smooth="yes"/>
			<point x="1364" y="-374"/>
			<point x="1814" y="20"/>
			<point x="1883" y="509" type="curve" smooth="yes"/>
			<point x="1955" y="1018"/>
			<point x="1600" y="1426"/>
			<point x="1093" y="1426" type="curve" smooth="yes"/>
			<point x="604" y="1426"/>
			<point x="155" y="1032"/>
			<point x="86" y="543" type="curve" smooth="yes"/>
			<point x="15" y="36"/>
			<point x="368" y="-374"/>
		</contour>
		<contour>
			<point x="883" y="-74" type="curve" smooth="yes"/>
			<point x="567" y="-74"/>
			<point x="335" y="178"/>
			<point x="381" y="509" type="curve" smooth="yes"/>
			<point x="428" y="842"/>
			<point x="736" y="1126"/>
			<point x="1085" y="1126" type="curve" smooth="yes"/>
			<point x="1412" y="1126"/>
			<point x="1633" y="862"/>
			<point x="1588" y="543" type="curve" smooth="yes"/>
			<point x="1541" y="210"/>
			<point x="1231" y="-74"/>
		</contour>
		<component base="c" xOffset="424" yOffset="26"/>
	</outline>
</glyph>
<glyph name="registered" format="2">
	<advance width="1194"/>
	<unicode hex="00AE"/>
	<outline>
		<contour>
			<point x="594" y="364" type="curve" smooth="yes"/>
			<point x="877" y="364"/>
			<point x="1147" y="592"/>
			<point x="1188" y="885" type="curve" smooth="yes"/>
			<point x="1230" y="1184"/>
			<point x="1021" y="1438"/>
			<point x="711" y="1438" type="curve" smooth="yes"/>
			<point x="423" y="1438"/>
			<point x="159" y="1206"/>
			<point x="119" y="919" type="curve" smooth="yes"/>
			<point x="76" y="612"/>
			<point x="289" y="364"/>
		</contour>
		<contour>
			<point x="590" y="574" type="curve" smooth="yes"/>
			<point x="418" y="574"/>
			<point x="300" y="712"/>
			<point x="324" y="885" type="curve" smooth="yes"/>
			<point x="351" y="1074"/>
			<point x="527" y="1228"/>
			<point x="715" y="1228" type="curve" smooth="yes"/>
			<point x="889" y="1228"/>
			<point x="1007" y="1090"/>
			<point x="983" y="919" type="curve" smooth="yes"/>
			<point x="956" y="728"/>
			<point x="780" y="574"/>
		</contour>
		<contour>
			<point x="478" y="698" type="line"/>
			<point x="588" y="698" type="line"/>
			<point x="610" y="854" type="line"/>
			<point x="631" y="854" type="line"/>
			<point x="701" y="698" type="line"/>
			<point x="821" y="698" type="line"/>
			<point x="750" y="870" type="line"/>
			<point x="797" y="894"/>
			<point x="821" y="936"/>
			<point x="827" y="979" type="curve" smooth="yes"/>
			<point x="839" y="1066"/>
			<point x="781" y="1138"/>
			<point x="705" y="1138" type="curve" smooth="yes"/>
			<point x="540" y="1138" type="line"/>
		</contour>
		<contour>
			<point x="625" y="964" type="line"/>
			<point x="634" y="1028" type="line"/>
			<point x="707" y="1028" type="line" smooth="yes"/>
			<point x="721" y="1028"/>
			<point x="723" y="1022"/>
			<point x="722" y="1013" type="curve" smooth="yes"/>
			<point x="718" y="986"/>
			<point x="695" y="964"/>
			<point x="681" y="964" type="curve" smooth="yes"/>
		</contour>
	</outline>
</glyph>
<glyph name="degree" format="2">
	<advance width="1026"/>
	<unicode hex="00B0"/>
	<outline>
		<contour>
			<point x="552" y="648" type="curve" smooth="yes"/>
			<point x="775" y="648"/>
			<point x="991" y="824"/>
			<point x="1025" y="1063" type="curve" smooth="yes"/>
			<point x="1058" y="1300"/>
			<point x="896" y="1512"/>
			<point x="639" y="1512" type="curve" smooth="yes"/>
			<point x="406" y="1512"/>
			<point x="196" y="1322"/>
			<point x="164" y="1097" type="curve" smooth="yes"/>
			<point x="131" y="860"/>
			<point x="297" y="648"/>
		</contour>
		<contour>
			<point x="560" y="948" type="curve" smooth="yes"/>
			<point x="495" y="948"/>
			<point x="450" y="998"/>
			<point x="459" y="1063" type="curve" smooth="yes"/>
			<point x="471" y="1146"/>
			<point x="548" y="1212"/>
			<point x="631" y="1212" type="curve" smooth="yes"/>
			<point x="694" y="1212"/>
			<point x="739" y="1162"/>
			<point x="730" y="1097" type="curve" smooth="yes"/>
			<point x="718" y="1014"/>
			<point x="641" y="948"/>
		</contour>
	</outline>
</glyph>
<glyph name="uni00B2" format="2">
	<advance width="727"/>
	<unicode hex="00B2"/>
	<outline>
		<contour>
			<point x="141" y="818" type="line"/>
			<point x="616" y="818" type="line"/>
			<point x="639" y="986" type="line"/>
			<point x="477" y="980" type="line"/>
			<point x="575" y="1056"/>
			<point x="671" y="1124"/>
			<point x="684" y="1218" type="curve"/>
			<point x="704" y="1362"/>
			<point x="603" y="1468"/>
			<point x="460" y="1468" type="curve"/>
			<point x="334" y="1468"/>
			<point x="219" y="1378"/>
			<point x="200" y="1243" type="curve"/>
			<point x="366" y="1227" type="line"/>
			<point x="372" y="1270"/>
			<point x="420" y="1312"/>
			<point x="472" y="1312" type="curve"/>
			<point x="504" y="1312"/>
			<point x="526" y="1286"/>
			<point x="517" y="1251" type="curve"/>
			<point x="424" y="1106"/>
			<point x="281" y="1048"/>
			<point x="155" y="969" type="curve"/>
		</contour>
	</outline>
</glyph>
<glyph name="uni00B3" format="2">
	<advance width="588"/>
	<unicode hex="00B3"/>
	<outline>
		<contour>
			<point x="354" y="798" type="curve" smooth="yes"/>
			<point x="465" y="798"/>
			<point x="569" y="879"/>
			<point x="585" y="993" type="curve" smooth="yes"/>
			<point x="594" y="1052"/>
			<point x="579" y="1107"/>
			<point x="552" y="1138" type="curve"/>
			<point x="587" y="1180"/>
			<point x="600" y="1220"/>
			<point x="605" y="1254" type="curve" smooth="yes"/>
			<point x="622" y="1378"/>
			<point x="534" y="1468"/>
			<point x="409" y="1468" type="curve" smooth="yes"/>
			<point x="303" y="1468"/>
			<point x="208" y="1394"/>
			<point x="192" y="1279" type="curve"/>
			<point x="357" y="1263" type="line"/>
			<point x="360" y="1285"/>
			<point x="391" y="1312"/>
			<point x="421" y="1312" type="curve" smooth="yes"/>
			<point x="434" y="1312"/>
			<point x="444" y="1301"/>
			<point x="442" y="1288" type="curve" smooth="yes"/>
			<point x="436" y="1250"/>
			<point x="404" y="1199"/>
			<point x="328" y="1199" type="curve"/>
			<point x="330" y="1094" type="line"/>
			<point x="404" y="1094"/>
			<point x="426" y="1056"/>
			<point x="422" y="1027" type="curve" smooth="yes"/>
			<point x="416" y="986"/>
			<point x="379" y="954"/>
			<point x="342" y="954" type="curve" smooth="yes"/>
			<point x="319" y="954"/>
			<point x="306" y="970"/>
			<point x="310" y="1002" type="curve"/>
			<point x="145" y="1018" type="line"/>
			<point x="128" y="895"/>
			<point x="223" y="798"/>
		</contour>
	</outline>
</glyph>
<glyph name="uni00B9" format="2">
	<advance width="466"/>
	<unicode hex="00B9"/>
	<outline>
		<contour>
			<point x="199" y="818" type="line"/>
			<point x="367" y="818" type="line"/>
			<point x="455" y="1449" type="line"/>
			<point x="252" y="1449" type="line"/>
			<point x="205" y="1281" type="line"/>
			<point x="264" y="1281" type="line"/>
		</contour>
	</outline>
</glyph>
<glyph name="Eth" format="2">
	<advance width="1462"/>
	<unicode hex="00D0"/>
	<outline>
		<contour>
			<point x="170" y="0" type="line"/>
			<point x="640" y="0" type="line" smooth="yes"/>
			<point x="1026" y="0"/>
			<point x="1375" y="306"/>
			<point x="1428" y="683" type="curve" smooth="yes"/>
			<point x="1483" y="1078"/>
			<point x="1206" y="1400"/>
			<point x="820" y="1400" type="curve" smooth="yes"/>
			<point x="366" y="1400" type="line"/>
			<point x="296" y="900" type="line"/>
			<point x="156" y="900" type="line"/>
			<point x="114" y="600" type="line"/>
			<point x="254" y="600" type="line"/>
		</contour>
		<contour>
			<point x="512" y="300" type="line"/>
			<point x="554" y="600" type="line"/>
			<point x="792" y="600" type="line"/>
			<point x="834" y="900" type="line"/>
			<point x="596" y="900" type="line"/>
			<point x="624" y="1100" type="line"/>
			<point x="795" y="1100" type="line" smooth="yes"/>
			<point x="1015" y="1100"/>
			<point x="1162" y="928"/>
			<point x="1132" y="717" type="curve" smooth="yes"/>
			<point x="1100" y="488"/>
			<point x="886" y="300"/>
			<point x="666" y="300" type="curve" smooth="yes"/>
		</contour>
	</outline>
</glyph>
<glyph name="multiply" format="2">
	<advance width="1078"/>
	<unicode hex="00D7"/>
	<outline>
		<contour>
			<point x="247" y="140" type="line"/>
			<point x="528" y="388" type="line"/>
			<point x="741" y="140" type="line"/>
			<point x="977" y="352" type="line"/>
			<point x="764" y="600" type="line"/>
			<point x="1047" y="848" type="line"/>
			<point x="859" y="1060" type="line"/>
			<point x="576" y="812" type="line"/>
			<point x="365" y="1060" type="line"/>
			<point x="129" y="848" type="line"/>
			<point x="340" y="600" type="line"/>
			<point x="59" y="352" type="line"/>
		</contour>
	</outline>
</glyph>
<glyph name="igrave" format="2">
	<advance width="587"/>
	<unicode hex="00EC"/>
	<outline>
		<contour>
			<point x="237" y="1000" type="line"/>
			<point x="97" y="0" type="line"/>
			<point x="397" y="0" type="line"/>
			<point x="537" y="1000" type="line"/>
		</contour>
		<component base="grave" xOffset="-303"/>
	</outline>
</glyph>
<glyph name="iacute" format="2">
	<advance width="593"/>
	<unicode hex="00ED"/>
	<outline>
		<contour>
			<point x="190" y="1000" type="line"/>
			<point x="50" y="0" type="line"/>
			<point x="350" y="0" type="line"/>
			<point x="490" y="1000" type="line"/>
		</contour>
		<component base="acutecomb" xOffset="-290"/>
	</outline>
</glyph>
<glyph name="icircumflex" format="2">
	<advance width="542"/>
	<unicode hex="00EE"/>
	<outline>
		<contour>
			<point x="193" y="1000" type="line"/>
			<point x="53" y="0" type="line"/>
			<point x="353" y="0" type="line"/>
			<point x="493" y="1000" type="line"/>
		</contour>
		<component base="uni0302" xOffset="-377"/>
	</outline>
</glyph>
<glyph name="eth" format="2">
	<advance width="1126"/>
	<unicode hex="00F0"/>
	<outline>
		<contour>
			<point x="519" y="1018" type="line"/>
			<point x="1010" y="1450" type="line"/>
			<point x="884" y="1592" type="line"/>
			<point x="391" y="1160" type="line"/>
		</contour>
		<component base="partialdiff"/>
	</outline>
</glyph>
<glyph name="dotlessi" format="2">
	<advance width="540"/>
	<unicode hex="0131"/>
	<outline>
		<contour>
			<point x="190" y="1000" type="line"/>
			<point x="50" y="0" type="line"/>
			<point x="350" y="0" type="line"/>
			<point x="490" y="1000" type="line"/>
		</contour>
	</outline>
</glyph>
<glyph name="breve" format="2">
	<advance width="1144"/>
	<unicode hex="02D8"/>
	<outline>
		<contour>
			<point x="677" y="1128" type="curve" smooth="yes"/>
			<point x="853" y="1128"/>
			<point x="1012" y="1268"/>
			<point x="1038" y="1452" type="curve"/>
			<point x="860" y="1468" type="line"/>
			<point x="848" y="1382"/>
			<point x="761" y="1308"/>
			<point x="669" y="1308" type="curve" smooth="yes"/>
			<point x="593" y="1308"/>
			<point x="542" y="1370"/>
			<point x="554" y="1452" type="curve"/>
			<point x="376" y="1468" type="line"/>
			<point x="351" y="1286"/>
			<point x="487" y="1128"/>
		</contour>
	</outline>
</glyph>
<glyph name="acutecomb" format="2">
	<advance width="1180"/>
	<unicode hex="0301"/>
	<outline>
		<contour>
			<point x="568" y="1138" type="line"/>
			<point x="733" y="1138" type="line"/>
			<point x="993" y="1426" type="line"/>
			<point x="688" y="1426" type="line"/>
		</contour>
	</outline>
</glyph>
<glyph name="uni0302" format="2">
	<advance width="1302"/>
	<unicode hex="0302"/>
	<outline>
		<contour>
			<point x="624" y="1400" type="line"/>
			<point x="491" y="1166" type="line"/>
			<point x="688" y="1166" type="line"/>
			<point x="771" y="1308" type="line"/>
			<point x="806" y="1166" type="line"/>
			<point x="993" y="1166" type="line"/>
			<point x="926" y="1400" type="line"/>
		</contour>
	</outline>
</glyph>
<glyph name="tildecomb" format="2">
	<advance width="1508"/>
	<unicode hex="0303"/>
	<outline>
		<contour>
			<point x="924" y="1194" type="curve" smooth="yes"/>
			<point x="1070" y="1194"/>
			<point x="1162" y="1318"/>
			<point x="1127" y="1506" type="curve"/>
			<point x="954" y="1466" type="line"/>
			<point x="963" y="1428"/>
			<point x="965" y="1378"/>
			<point x="919" y="1378" type="curve" smooth="yes"/>
			<point x="899" y="1378"/>
			<point x="729" y="1520"/>
			<point x="625" y="1520" type="curve" smooth="yes"/>
			<point x="469" y="1520"/>
			<point x="388" y="1392"/>
			<point x="425" y="1214" type="curve"/>
			<point x="593" y="1244" type="line"/>
			<point x="586" y="1284"/>
			<point x="587" y="1302"/>
			<point x="600" y="1318" type="curve" smooth="yes"/>
			<point x="620" y="1372"/>
			<point x="814" y="1194"/>
		</contour>
	</outline>
</glyph>
<glyph name="uni0308" format="2">
	<advance width="1542"/>
	<unicode hex="0308"/>
	<outline>
		<contour>
			<point x="656" y="1124" type="curve" smooth="yes"/>
			<point x="732" y="1124"/>
			<point x="798" y="1180"/>
			<point x="808" y="1257" type="curve" smooth="yes"/>
			<point x="821" y="1350"/>
			<point x="757" y="1424"/>
			<point x="665" y="1424" type="curve" smooth="yes"/>
			<point x="587" y="1424"/>
			<point x="522" y="1366"/>
			<point x="511" y="1291" type="curve" smooth="yes"/>
			<point x="498" y="1196"/>
			<point x="562" y="1124"/>
		</contour>
		<contour>
			<point x="1096" y="1124" type="curve" smooth="yes"/>
			<point x="1172" y="1124"/>
			<point x="1238" y="1180"/>
			<point x="1248" y="1257" type="curve" smooth="yes"/>
			<point x="1261" y="1350"/>
			<point x="1197" y="1424"/>
			<point x="1105" y="1424" type="curve" smooth="yes"/>
			<point x="1027" y="1424"/>
			<point x="962" y="1366"/>
			<point x="951" y="1291" type="curve" smooth="yes"/>
			<point x="938" y="1196"/>
			<point x="1002" y="1124"/>
		</contour>
	</outline>
</glyph>
<glyph name="uni03BC" format="2">
	<advance width="1176"/>
	<unicode hex="03BC"/>
	<outline>
		<contour>
			<point x="-51" y="-432" type="line"/>
			<point x="249" y="-432" type="line"/>
			<point x="318" y="3" type="line"/>
			<point x="365" y="-15"/>
			<point x="418" y="-28"/>
			<point x="487" y="-28" type="curve" smooth="yes"/>
			<point x="586" y="-28"/>
			<point x="671" y="16"/>
			<point x="743" y="86" type="curve"/>
			<point x="725" y="0" type="line"/>
			<point x="1026" y="0" type="line"/>
			<point x="1166" y="1000" type="line"/>
			<point x="866" y="1000" type="line"/>
			<point x="797" y="508" type="line" smooth="yes"/>
			<point x="779" y="376"/>
			<point x="686" y="262"/>
			<point x="548" y="262" type="curve" smooth="yes"/>
			<point x="424" y="262"/>
			<point x="360" y="360"/>
			<point x="379" y="492" type="curve" smooth="yes"/>
			<point x="450" y="1000" type="line"/>
			<point x="150" y="1000" type="line"/>
		</contour>
	</outline>
</glyph>
<glyph name="emdash" format="2">
	<advance width="2040"/>
	<unicode hex="2014"/>
	<outline>
		<contour>
			<point x="155" y="750" type="line"/>
			<point x="113" y="450" type="line"/>
			<point x="1913" y="450" type="line"/>
			<point x="1955" y="750" type="line"/>
		</contour>
	</outline>
</glyph>
<glyph name="quoteleft" format="2">
	<advance width="462"/>
	<unicode hex="2018"/>
	<unicode hex="02BB"/>
	<outline>
		<contour>
			<point x="111" y="878" type="line"/>
			<point x="414" y="878" type="line"/>
			<point x="549" y="1400" type="line"/>
			<point x="346" y="1400" type="line"/>
		</contour>
	</outline>
</glyph>
<glyph name="quoteright" format="2">
	<advance width="462"/>
	<unicode hex="2019"/>
	<unicode hex="2032"/>
	<outline>
		<contour>
			<point x="92" y="878" type="line"/>
			<point x="295" y="878" type="line"/>
			<point x="531" y="1400" type="line"/>
			<point x="228" y="1400" type="line"/>
		</contour>
	</outline>
</glyph>
<glyph name="dagger" format="2">
	<advance width="896"/>
	<unicode hex="2020"/>
	<outline>
		<contour>
			<point x="150" y="1000" type="line"/>
			<point x="368" y="1000" type="line"/>
			<point x="306" y="560" type="line"/>
			<point x="606" y="560" type="line"/>
			<point x="668" y="1000" type="line"/>
			<point x="886" y="1000" type="line"/>
			<point x="928" y="1300" type="line"/>
			<point x="710" y="1300" type="line"/>
			<point x="739" y="1500" type="line"/>
			<point x="439" y="1500" type="line"/>
			<point x="410" y="1300" type="line"/>
			<point x="192" y="1300" type="line"/>
		</contour>
	</outline>
</glyph>
<glyph name="bullet" format="2">
	<advance width="560"/>
	<unicode hex="2022"/>
	<outline>
		<contour>
			<point x="283" y="400" type="curve" smooth="yes"/>
			<point x="384" y="400"/>
			<point x="477" y="480"/>
			<point x="492" y="583" type="curve" smooth="yes"/>
			<point x="508" y="702"/>
			<point x="424" y="800"/>
			<point x="305" y="800" type="curve" smooth="yes"/>
			<point x="202" y="800"/>
			<point x="111" y="718"/>
			<point x="96" y="617" type="curve" smooth="yes"/>
			<point x="79" y="496"/>
			<point x="162" y="400"/>
		</contour>
	</outline>
</glyph>
<glyph name="guilsinglright" format="2">
	<advance width="820"/>
	<unicode hex="203A"/>
	<outline>
		<contour>
			<point x="63" y="261" type="line"/>
			<point x="370" y="261" type="line"/>
			<point x="714" y="601" type="line"/>
			<point x="459" y="939" type="line"/>
			<point x="165" y="939" type="line"/>
			<point x="412" y="601" type="line"/>
		</contour>
	</outline>
</glyph>
<glyph name="fraction" format="2">
	<advance width="1050"/>
	<unicode hex="2044"/>
	<unicode hex="2215"/>
	<outline>
		<contour>
			<point x="-73" y="0" type="line"/>
			<point x="175" y="0" type="line"/>
			<point x="1180" y="1400" type="line"/>
			<point x="931" y="1400" type="line"/>
		</contour>
	</outline>
</glyph>
<glyph name="uni2076" format="2">
	<advance width="706"/>
	<unicode hex="2076"/>
	<outline>
		<contour>
			<point x="388" y="798" type="curve" smooth="yes"/>
			<point x="506" y="798"/>
			<point x="615" y="879"/>
			<point x="632" y="1000" type="curve" smooth="yes"/>
			<point x="648" y="1114"/>
			<point x="593" y="1203"/>
			<point x="480" y="1242" type="curve"/>
			<point x="638" y="1446" type="line"/>
			<point x="437" y="1453" type="line"/>
			<point x="196" y="1117"/>
			<point x="180" y="1099"/>
			<point x="171" y="1036" type="curve" smooth="yes"/>
			<point x="152" y="895"/>
			<point x="249" y="798"/>
		</contour>
		<contour>
			<point x="376" y="954" type="curve" smooth="yes"/>
			<point x="360" y="954"/>
			<point x="336" y="956"/>
			<point x="331" y="986" type="curve" smooth="yes"/>
			<point x="330" y="1028"/>
			<point x="368" y="1082"/>
			<point x="428" y="1082" type="curve" smooth="yes"/>
			<point x="450" y="1082"/>
			<point x="466" y="1070"/>
			<point x="472" y="1050" type="curve" smooth="yes"/>
			<point x="473" y="1001"/>
			<point x="425" y="954"/>
		</contour>
	</outline>
</glyph>
<glyph name="uni2077" format="2">
	<advance width="686"/>
	<unicode hex="2077"/>
	<outline>
		<contour>
			<point x="198" y="818" type="line"/>
			<point x="396" y="818" type="line"/>
			<point x="727" y="1283" type="line"/>
			<point x="747" y="1446" type="line"/>
			<point x="253" y="1446" type="line"/>
			<point x="229" y="1278" type="line"/>
			<point x="526" y="1278" type="line"/>
		</contour>
	</outline>
</glyph>
<glyph name="uni2079" format="2">
	<advance width="658"/>
	<unicode hex="2079"/>
	<outline>
		<contour>
			<point x="172" y="818" type="line"/>
			<point x="372" y="818" type="line"/>
			<point x="601" y="1125" type="line"/>
			<point x="625" y="1163"/>
			<point x="636" y="1201"/>
			<point x="641" y="1230" type="curve" smooth="yes"/>
			<point x="659" y="1362"/>
			<point x="567" y="1468"/>
			<point x="424" y="1468" type="curve" smooth="yes"/>
			<point x="303" y="1468"/>
			<point x="196" y="1382"/>
			<point x="179" y="1264" type="curve" smooth="yes"/>
			<point x="164" y="1154"/>
			<point x="222" y="1050"/>
			<point x="329" y="1024" type="curve"/>
		</contour>
		<contour>
			<point x="384" y="1182" type="curve" smooth="yes"/>
			<point x="368" y="1182"/>
			<point x="337" y="1189"/>
			<point x="342" y="1228" type="curve" smooth="yes"/>
			<point x="348" y="1268"/>
			<point x="384" y="1312"/>
			<point x="436" y="1312" type="curve" smooth="yes"/>
			<point x="458" y="1312"/>
			<point x="481" y="1289"/>
			<point x="478" y="1267" type="curve" smooth="yes"/>
			<point x="472" y="1222"/>
			<point x="428" y="1182"/>
		</contour>
	</outline>
</glyph>
<glyph name="uni2080" format="2">
	<advance width="648"/>
	<unicode hex="2080"/>
	<outline>
		<contour>
			<point x="266" y="-31" type="curve"/>
			<point x="397" y="-31"/>
			<point x="522" y="117"/>
			<point x="548" y="300" type="curve"/>
			<point x="576" y="498"/>
			<point x="477" y="662"/>
			<point x="330" y="662" type="curve"/>
			<point x="199" y="662"/>
			<point x="74" y="514"/>
			<point x="49" y="334" type="curve"/>
			<point x="20" y="133"/>
			<point x="119" y="-31"/>
		</contour>
		<contour>
			<point x="256" y="137" type="curve"/>
			<point x="210" y="137"/>
			<point x="202" y="230"/>
			<point x="212" y="300" type="curve"/>
			<point x="223" y="378"/>
			<point x="272" y="494"/>
			<point x="340" y="494" type="curve"/>
			<point x="385" y="494"/>
			<point x="394" y="399"/>
			<point x="385" y="334" type="curve"/>
			<point x="374" y="260"/>
			<point x="320" y="137"/>
		</contour>
	</outline>
</glyph>
<glyph name="uni2084" format="2">
	<advance width="696"/>
	<unicode hex="2084"/>
	<outline>
		<contour>
			<point x="261" y="0" type="line"/>
			<point x="429" y="0" type="line"/>
			<point x="441" y="86" type="line"/>
			<point x="494" y="86" type="line"/>
			<point x="517" y="254" type="line"/>
			<point x="464" y="254" type="line"/>
			<point x="517" y="631" type="line"/>
			<point x="329" y="631" type="line"/>
			<point x="63" y="288" type="line"/>
			<point x="38" y="86" type="line"/>
			<point x="273" y="86" type="line"/>
		</contour>
		<contour>
			<point x="228" y="254" type="line"/>
			<point x="336" y="396" type="line"/>
			<point x="313" y="254" type="line"/>
		</contour>
	</outline>
</glyph>
<glyph name="uni2086" format="2">
	<advance width="682"/>
	<unicode hex="2086"/>
	<outline>
		<contour>
			<point x="271" y="-31" type="curve" smooth="yes"/>
			<point x="390" y="-31"/>
			<point x="500" y="62"/>
			<point x="517" y="182" type="curve" smooth="yes"/>
			<point x="533" y="297"/>
			<point x="478" y="386"/>
			<point x="365" y="424" type="curve"/>
			<point x="523" y="629" type="line"/>
			<point x="322" y="636" type="line"/>
			<point x="81" y="300"/>
			<point x="65" y="282"/>
			<point x="56" y="219" type="curve" smooth="yes"/>
			<point x="37" y="78"/>
			<point x="133" y="-31"/>
		</contour>
		<contour>
			<point x="261" y="137" type="curve" smooth="yes"/>
			<point x="246" y="137"/>
			<point x="221" y="138"/>
			<point x="217" y="168" type="curve" smooth="yes"/>
			<point x="217" y="210"/>
			<point x="253" y="264"/>
			<point x="313" y="264" type="curve" smooth="yes"/>
			<point x="335" y="264"/>
			<point x="351" y="253"/>
			<point x="357" y="232" type="curve" smooth="yes"/>
			<point x="358" y="183"/>
			<point x="311" y="137"/>
		</contour>
	</outline>
</glyph>
<glyph name="uni2087" format="2">
	<advance width="686"/>
	<unicode hex="2087"/>
	<outline>
		<contour>
			<point x="80" y="0" type="line"/>
			<point x="278" y="0" type="line"/>
			<point x="612" y="468" type="line"/>
			<point x="632" y="631" type="line"/>
			<point x="138" y="631" type="line"/>
			<point x="115" y="463" type="line"/>
			<point x="412" y="463" type="line"/>
		</contour>
	</outline>
</glyph>
<glyph name="uni2089" format="2">
	<advance width="658"/>
	<unicode hex="2089"/>
	<outline>
		<contour>
			<point x="57" y="0" type="line"/>
			<point x="257" y="0" type="line"/>
			<point x="486" y="307" type="line"/>
			<point x="594" y="465"/>
			<point x="496" y="662"/>
			<point x="311" y="662" type="curve" smooth="yes"/>
			<point x="189" y="662"/>
			<point x="81" y="565"/>
			<point x="65" y="447" type="curve" smooth="yes"/>
			<point x="49" y="337"/>
			<point x="107" y="232"/>
			<point x="214" y="206" type="curve"/>
		</contour>
		<contour>
			<point x="269" y="365" type="curve" smooth="yes"/>
			<point x="254" y="365"/>
			<point x="222" y="371"/>
			<point x="227" y="410" type="curve" smooth="yes"/>
			<point x="233" y="450"/>
			<point x="270" y="494"/>
			<point x="321" y="494" type="curve" smooth="yes"/>
			<point x="344" y="494"/>
			<point x="366" y="471"/>
			<point x="363" y="449" type="curve" smooth="yes"/>
			<point x="357" y="404"/>
			<point x="314" y="365"/>
		</contour>
	</outline>
</glyph>
<glyph name="Euro" format="2">
	<advance width="1096"/>
	<unicode hex="20AC"/>
	<outline>
		<contour>
			<point x="952" y="-17" type="curve"/>
			<point x="979" y="297" type="line"/>
			<point x="794" y="241"/>
			<point x="636" y="301"/>
			<point x="562" y="459" type="curve"/>
			<point x="803" y="466" type="line"/>
			<point x="831" y="666" type="line"/>
			<point x="533" y="666" type="line"/>
			<point x="540" y="730" type="line"/>
			<point x="840" y="730" type="line"/>
			<point x="868" y="930" type="line"/>
			<point x="634" y="923" type="line"/>
			<point x="745" y="1077"/>
			<point x="932" y="1166"/>
			<point x="1110" y="1108" type="curve"/>
			<point x="1136" y="1415" type="line"/>
			<point x="790" y="1471"/>
			<point x="454" y="1274"/>
			<point x="303" y="938" type="curve"/>
			<point x="140" y="930" type="line"/>
			<point x="112" y="730" type="line"/>
			<point x="240" y="730" type="line"/>
			<point x="231" y="666" type="line"/>
			<point x="103" y="666" type="line"/>
			<point x="75" y="466" type="line"/>
			<point x="243" y="474" type="line"/>
			<point x="305" y="144"/>
			<point x="588" y="-73"/>
		</contour>
	</outline>
</glyph>
<glyph name="arrowup" format="2">
	<advance width="1264"/>
	<unicode hex="2191"/>
	<outline>
		<contour>
			<point x="428" y="116" type="line"/>
			<point x="728" y="116" type="line"/>
			<point x="828" y="808" type="line"/>
			<point x="995" y="620" type="line"/>
			<point x="1231" y="832" type="line"/>
			<point x="750" y="1384" type="line"/>
			<point x="127" y="832" type="line"/>
			<point x="315" y="620" type="line"/>
			<point x="528" y="808" type="line"/>
		</contour>
	</outline>
</glyph>
<glyph name="arrowright" format="2">
	<advance width="1428"/>
	<unicode hex="2192"/>
	<outline>
		<contour>
			<point x="759" y="198" type="line"/>
			<point x="1383" y="750" type="line"/>
			<point x="903" y="1302" type="line"/>
			<point x="667" y="1090" type="line"/>
			<point x="831" y="900" type="line"/>
			<point x="136" y="900" type="line"/>
			<point x="94" y="600" type="line"/>
			<point x="783" y="600" type="line"/>
			<point x="571" y="410" type="line"/>
		</contour>
	</outline>
</glyph>
<glyph name="arrowdown" format="2">
	<advance width="1262"/>
	<unicode hex="2193"/>
	<outline>
		<contour>
			<point x="582" y="116" type="line"/>
			<point x="1206" y="668" type="line"/>
			<point x="1017" y="880" type="line"/>
			<point x="804" y="692" type="line"/>
			<point x="904" y="1384" type="line"/>
			<point x="604" y="1384" type="line"/>
			<point x="504" y="692" type="line"/>
			<point x="339" y="880" type="line"/>
			<point x="104" y="668" type="line"/>
		</contour>
	</outline>
</glyph>
<glyph name="uni2196" format="2">
	<advance width="1162"/>
	<unicode hex="2196"/>
	<outline>
		<contour>
			<point x="841" y="249" type="line"/>
			<point x="1077" y="461" type="line"/>
			<point x="652" y="951" type="line"/>
			<point x="923" y="951" type="line"/>
			<point x="966" y="1251" type="line"/>
			<point x="186" y="1251" type="line"/>
			<point x="76" y="471" type="line"/>
			<point x="376" y="471" type="line"/>
			<point x="417" y="739" type="line"/>
		</contour>
	</outline>
</glyph>
<glyph name="uni2197" format="2">
	<advance width="1162"/>
	<unicode hex="2197"/>
	<outline>
		<contour>
			<point x="263" y="250" type="line"/>
			<point x="818" y="738" type="line"/>
			<point x="778" y="470" type="line"/>
			<point x="1078" y="470" type="line"/>
			<point x="1187" y="1250" type="line"/>
			<point x="405" y="1250" type="line"/>
			<point x="363" y="950" type="line"/>
			<point x="630" y="950" type="line"/>
			<point x="75" y="462" type="line"/>
		</contour>
	</outline>
</glyph>
<glyph name="uni2198" format="2">
	<advance width="1162"/>
	<unicode hex="2198"/>
	<outline>
		<contour>
			<point x="267" y="250" type="line"/>
			<point x="1047" y="250" type="line"/>
			<point x="1156" y="1030" type="line"/>
			<point x="856" y="1030" type="line"/>
			<point x="816" y="762" type="line"/>
			<point x="391" y="1250" type="line"/>
			<point x="156" y="1038" type="line"/>
			<point x="580" y="550" type="line"/>
			<point x="309" y="550" type="line"/>
		</contour>
	</outline>
</glyph>
<glyph name="uni2199" format="2">
	<advance width="1162"/>
	<unicode hex="2199"/>
	<outline>
		<contour>
			<point x="45" y="250" type="line"/>
			<point x="825" y="250" type="line"/>
			<point x="867" y="550" type="line"/>
			<point x="602" y="550" type="line"/>
			<point x="1158" y="1038" type="line"/>
			<point x="969" y="1250" type="line"/>
			<point x="414" y="762" type="line"/>
			<point x="455" y="1030" type="line"/>
			<point x="154" y="1030" type="line"/>
		</contour>
	</outline>
</glyph>
<glyph name="partialdiff" format="2">
	<advance width="1166"/>
	<unicode hex="2202"/>
	<outline>
		<contour>
			<point x="527" y="-26" type="curve"/>
			<point x="808" y="-26"/>
			<point x="1042" y="190"/>
			<point x="1085" y="495" type="curve"/>
			<point x="1162" y="1038"/>
			<point x="938" y="1540"/>
			<point x="476" y="1540" type="curve"/>
			<point x="453" y="1240" type="line"/>
			<point x="670" y="1240"/>
			<point x="696" y="1087"/>
			<point x="727" y="980" type="curve"/>
			<point x="697" y="978"/>
			<point x="669" y="980"/>
			<point x="635" y="980" type="curve"/>
			<point x="365" y="980"/>
			<point x="117" y="762"/>
			<point x="79" y="493" type="curve"/>
			<point x="39" y="208"/>
			<point x="240" y="-26"/>
		</contour>
		<contour>
			<point x="535" y="274" type="curve"/>
			<point x="432" y="274"/>
			<point x="360" y="358"/>
			<point x="374" y="459" type="curve"/>
			<point x="391" y="580"/>
			<point x="506" y="680"/>
			<point x="626" y="680" type="curve"/>
			<point x="728" y="680"/>
			<point x="800" y="596"/>
			<point x="785" y="493" type="curve"/>
			<point x="768" y="374"/>
			<point x="654" y="274"/>
		</contour>
	</outline>
</glyph>
<glyph name="product" format="2">
	<advance width="1280"/>
	<unicode hex="220F"/>
	<outline>
		<contour>
			<point x="206" y="1400" type="line"/>
			<point x="164" y="1100" type="line"/>
			<point x="1284" y="1100" type="line"/>
			<point x="1326" y="1400" type="line"/>
		</contour>
		<contour>
			<point x="288" y="1194" type="line"/>
			<point x="120" y="0" type="line"/>
			<point x="420" y="0" type="line"/>
			<point x="588" y="1194" type="line"/>
		</contour>
		<contour>
			<point x="888" y="1194" type="line"/>
			<point x="720" y="0" type="line"/>
			<point x="1020" y="0" type="line"/>
			<point x="1188" y="1194" type="line"/>
		</contour>
	</outline>
</glyph>
<glyph name="summation" format="2">
	<advance width="906"/>
	<unicode hex="2211"/>
	<outline>
		<contour>
			<point x="10" y="0" type="line"/>
			<point x="776" y="0" type="line"/>
			<point x="818" y="300" type="line"/>
			<point x="393" y="300" type="line"/>
			<point x="648" y="698" type="line"/>
			<point x="499" y="1096" type="line"/>
			<point x="930" y="1096" type="line"/>
			<point x="972" y="1396" type="line"/>
			<point x="206" y="1396" type="line"/>
			<point x="167" y="1096" type="line"/>
			<point x="312" y="698" type="line"/>
			<point x="49" y="300" type="line"/>
		</contour>
	</outline>
</glyph>
<glyph name="minus" format="2">
	<advance width="1160"/>
	<unicode hex="2212"/>
	<outline>
		<contour>
			<point x="73" y="450" type="line"/>
			<point x="1073" y="450" type="line"/>
			<point x="1115" y="750" type="line"/>
			<point x="115" y="750" type="line"/>
		</contour>
	</outline>
</glyph>
<glyph name="notequal" format="2">
	<advance width="1160"/>
	<unicode hex="2260"/>
	<outline>
		<contour>
			<point x="1004" y="1182" type="line"/>
			<point x="688" y="1182" type="line"/>
			<point x="596" y="972" type="line"/>
			<point x="146" y="972" type="line"/>
			<point x="104" y="672" type="line"/>
			<point x="466" y="672" type="line"/>
			<point x="404" y="528" type="line"/>
			<point x="84" y="528" type="line"/>
			<point x="42" y="228" type="line"/>
			<point x="274" y="228" type="line"/>
			<point x="182" y="18" type="line"/>
			<point x="498" y="18" type="line"/>
			<point x="590" y="228" type="line"/>
			<point x="1042" y="228" type="line"/>
			<point x="1084" y="528" type="line"/>
			<point x="720" y="528" type="line"/>
			<point x="782" y="672" type="line"/>
			<point x="1104" y="672" type="line"/>
			<point x="1146" y="972" type="line"/>
			<point x="913" y="972" type="line"/>
		</contour>
	</outline>
</glyph>
<glyph name="lessequal" format="2">
	<advance width="1160"/>
	<unicode hex="2264"/>
	<outline>
		<contour>
			<point x="1056" y="328" type="line"/>
			<point x="1099" y="640" type="line"/>
			<point x="345" y="864" type="line"/>
			<point x="1163" y="1088" type="line"/>
			<point x="1206" y="1400" type="line"/>
			<point x="166" y="1114" type="line"/>
			<point x="96" y="612" type="line"/>
		</contour>
		<contour>
			<point x="10" y="0" type="line"/>
			<point x="1010" y="0" type="line"/>
			<point x="1052" y="300" type="line"/>
			<point x="52" y="300" type="line"/>
		</contour>
	</outline>
</glyph>
<glyph name="uniFFFD" format="2">
	<advance width="1630"/>
	<unicode hex="FFFD"/>
	<outline>
		<contour>
			<point x="759" y="-26" type="curve" smooth="yes"/>
			<point x="822" y="-26"/>
			<point x="895" y="-4"/>
			<point x="957" y="50" type="curve" smooth="yes"/>
			<point x="1432" y="464" type="line" smooth="yes"/>
			<point x="1493" y="520"/>
			<point x="1523" y="590"/>
			<point x="1532" y="653" type="curve" smooth="yes"/>
			<point x="1543" y="734"/>
			<point x="1521" y="806"/>
			<point x="1473" y="862" type="curve" smooth="yes"/>
			<point x="1114" y="1276" type="line" smooth="yes"/>
			<point x="1069" y="1332"/>
			<point x="1001" y="1364"/>
			<point x="921" y="1364" type="curve" smooth="yes"/>
			<point x="857" y="1364"/>
			<point x="785" y="1344"/>
			<point x="721" y="1288" type="curve" smooth="yes"/>
			<point x="246" y="874" type="line" smooth="yes"/>
			<point x="187" y="820"/>
			<point x="155" y="750"/>
			<point x="146" y="687" type="curve" smooth="yes"/>
			<point x="135" y="606"/>
			<point x="156" y="532"/>
			<point x="205" y="476" type="curve" smooth="yes"/>
			<point x="563" y="62" type="line" smooth="yes"/>
			<point x="608" y="6"/>
			<point x="678" y="-26"/>
		</contour>
		<contour>
			<point x="765" y="230" type="curve" smooth="yes"/>
			<point x="718" y="230"/>
			<point x="687" y="266"/>
			<point x="694" y="315" type="curve" smooth="yes"/>
			<point x="703" y="378"/>
			<point x="763" y="430"/>
			<point x="827" y="430" type="curve" smooth="yes"/>
			<point x="875" y="430"/>
			<point x="905" y="394"/>
			<point x="899" y="349" type="curve" smooth="yes"/>
			<point x="889" y="282"/>
			<point x="830" y="230"/>
		</contour>
		<contour>
			<point x="716" y="512" type="line"/>
			<point x="715" y="506" type="line" smooth="yes"/>
			<point x="727" y="596"/>
			<point x="793" y="684"/>
			<point x="886" y="718" type="curve" smooth="yes"/>
			<point x="900" y="732"/>
			<point x="910" y="754"/>
			<point x="912" y="771" type="curve" smooth="yes"/>
			<point x="919" y="818"/>
			<point x="886" y="856"/>
			<point x="839" y="856" type="curve" smooth="yes"/>
			<point x="810" y="856"/>
			<point x="785" y="834"/>
			<point x="780" y="796" type="curve"/>
			<point x="577" y="780" type="line"/>
			<point x="598" y="928"/>
			<point x="745" y="1056"/>
			<point x="901" y="1056" type="curve" smooth="yes"/>
			<point x="1041" y="1056"/>
			<point x="1136" y="944"/>
			<point x="1117" y="805" type="curve" smooth="yes"/>
			<point x="1102" y="696"/>
			<point x="1027" y="604"/>
			<point x="933" y="563" type="curve" smooth="yes"/>
			<point x="925" y="551"/>
			<point x="919" y="538"/>
			<point x="917" y="522" type="curve" smooth="yes"/>
			<point x="916" y="512" type="line"/>
		</contour>
	</outline>
</glyph>
